# xmcd CD database file
#
# Track frame offsets:
#	150
#	14910
#	34840
#	64192
#	88421
#	102484
#	125794
#	139810
#	161528
#
# Disc length: 2300 seconds
#
# Revision: 1
# Processed by: cddbd v1.5.2PL0 Copyright (c) Steve Scherf et al.
# Submitted via: CDex 1.70beta2
#
DISCID=8808fa09
DTITLE=Guy Lafitte - Blues in Summertime
DYEAR=1971
DGENRE=Jazz
TTITLE0=Summertime
TTITLE1=It Never Entered My Mind
TTITLE2=Sieste
TTITLE3=Tili-Fun
TTITLE4=La Nuit des lapins blêmes
TTITLE5=Stardust
TTITLE6=Lumberjack
TTITLE7=Milligan Place
TTITLE8=Heaven
EXTD=YEAR: 1971
EXTT0=
EXTT1=
EXTT2=
EXTT3=
EXTT4=
EXTT5=
EXTT6=
EXTT7=
EXTT8=
PLAYORDER=
